<svg width="83" height="83" viewBox="0 0 83 83" fill="none" xmlns="http://www.w3.org/2000/svg">
<circle cx="41.5" cy="41.5" r="41.5" fill="#12372A"/>
<path d="M63.5 24L45.5 43.125M37.5035 42.1913C31.9235 44.3333 27.4618 43.9665 23 42.198C24.125 56.6948 30.884 62.268 39.8952 64.5C39.8952 64.5 46.6835 59.6985 47.6623 48.3158C47.768 47.0828 47.8198 46.4685 47.5655 45.7733C47.309 45.078 46.805 44.5808 45.7993 43.584C44.1433 41.946 43.3175 41.127 42.3343 40.92C41.351 40.7175 40.0685 41.208 37.5035 42.1913Z" stroke="#F1C30C" stroke-width="1.5" stroke-linecap="round" stroke-linejoin="round"/>
<path d="M26.375 54.2537C26.375 54.2537 32 55.3427 37.625 51.0002" stroke="#F1C30C" stroke-width="1.5" stroke-linecap="round" stroke-linejoin="round"/>
<path d="M35.375 33.5625C35.375 34.3084 35.0787 35.0238 34.5512 35.5512C34.0238 36.0787 33.3084 36.375 32.5625 36.375C31.8166 36.375 31.1012 36.0787 30.5738 35.5512C30.0463 35.0238 29.75 34.3084 29.75 33.5625C29.75 32.8166 30.0463 32.1012 30.5738 31.5738C31.1012 31.0463 31.8166 30.75 32.5625 30.75C33.3084 30.75 34.0238 31.0463 34.5512 31.5738C35.0787 32.1012 35.375 32.8166 35.375 33.5625Z" stroke="#F1C30C" stroke-width="1.5"/>
<path d="M41 26.2502V26.4752" stroke="#F1C30C" stroke-width="2" stroke-linecap="round" stroke-linejoin="round"/>
</svg>
