<svg width="83" height="83" viewBox="0 0 83 83" fill="none" xmlns="http://www.w3.org/2000/svg">
<circle cx="41.5" cy="41.5" r="41.5" fill="#12372A"/>
<path d="M41.0833 19C38.1833 19 35.3117 19.5712 32.6324 20.681C29.9531 21.7908 27.5187 23.4174 25.4681 25.4681C21.3266 29.6095 19 35.2265 19 41.0833C19 46.9402 21.3266 52.5572 25.4681 56.6986C27.5187 58.7492 29.9531 60.3759 32.6324 61.4857C35.3117 62.5955 38.1833 63.1667 41.0833 63.1667C46.9402 63.1667 52.5572 60.84 56.6986 56.6986C60.84 52.5572 63.1667 46.9402 63.1667 41.0833C63.1667 38.1833 62.5955 35.3117 61.4857 32.6324C60.3759 29.9531 58.7492 27.5187 56.6986 25.4681C54.648 23.4174 52.2135 21.7908 49.5343 20.681C46.855 19.5712 43.9834 19 41.0833 19ZM50.3583 50.3583L38.875 43.2917V30.0417H42.1875V41.525L52.125 47.4875L50.3583 50.3583Z" fill="#F1C30C"/>
</svg>
