<svg width="83" height="83" viewBox="0 0 83 83" fill="none" xmlns="http://www.w3.org/2000/svg">
<circle cx="41.5" cy="41.5" r="41.5" fill="#12372A"/>
<path d="M34.9233 30.3212H47.1733C47.7148 30.3212 48.2341 30.1061 48.617 29.7232C48.9999 29.3403 49.215 28.821 49.215 28.2795C49.215 27.738 48.9999 27.2187 48.617 26.8358C48.2341 26.4529 47.7148 26.2378 47.1733 26.2378H34.9233C34.3819 26.2378 33.8625 26.4529 33.4797 26.8358C33.0968 27.2187 32.8817 27.738 32.8817 28.2795C32.8817 28.821 33.0968 29.3403 33.4797 29.7232C33.8625 30.1061 34.3819 30.3212 34.9233 30.3212ZM35.8829 23.1753C35.913 23.4243 36.0337 23.6535 36.222 23.8192C36.4103 23.9849 36.653 24.0755 36.9038 24.0737H45.1317C45.3812 24.0711 45.6216 23.979 45.809 23.8142C45.9963 23.6493 46.1183 23.4226 46.1525 23.1753C46.6014 21.0051 47.4309 18.9315 48.6025 17.0503C48.7107 16.8678 48.7553 16.6547 48.7295 16.4441C48.7036 16.2335 48.6087 16.0375 48.4596 15.8866C48.3364 15.7244 48.1676 15.6027 47.9748 15.5372C47.782 15.4717 47.5739 15.4654 47.3775 15.5191L43.58 17.1524C43.5163 17.1832 43.4465 17.1991 43.3758 17.1991C43.3051 17.1991 43.2353 17.1832 43.1717 17.1524C43.045 17.1053 42.9422 17.0098 42.8858 16.887L41.9875 14.6208C41.9091 14.4366 41.7782 14.2796 41.6112 14.1692C41.4442 14.0588 41.2485 14 41.0483 14C40.8482 14 40.6524 14.0588 40.4854 14.1692C40.3185 14.2796 40.1876 14.4366 40.1092 14.6208L39.2108 16.887C39.1545 17.0098 39.0517 17.1053 38.925 17.1524C38.8613 17.1832 38.7915 17.1991 38.7208 17.1991C38.6501 17.1991 38.5803 17.1832 38.5167 17.1524L34.7192 15.5191C34.5244 15.4403 34.3102 15.4235 34.1055 15.471C33.9009 15.5185 33.7159 15.628 33.5758 15.7845C33.4267 15.9354 33.3318 16.1315 33.306 16.342C33.2801 16.5526 33.3248 16.7658 33.4329 16.9483C34.6157 18.8606 35.4456 20.9697 35.8829 23.1753ZM48.0717 32.6078C47.8611 32.4461 47.6022 32.3598 47.3367 32.3628H34.76C34.4945 32.3598 34.2356 32.4461 34.025 32.6078C28.8188 36.6912 23 43.6328 23 49.7578C23 58.3941 27.8183 62.9878 41.0483 62.9878C54.2783 62.9878 59.0967 58.3941 59.0967 49.7578C59.0967 43.6328 53.2983 36.5891 48.0717 32.6078ZM43.09 55.0866C42.971 55.1099 42.8635 55.1732 42.7855 55.2661C42.7075 55.359 42.6637 55.4757 42.6613 55.597V56.3524C42.6613 56.7585 42.4999 57.148 42.2128 57.4352C41.9256 57.7223 41.5361 57.8837 41.13 57.8837C40.7239 57.8837 40.3344 57.7223 40.0472 57.4352C39.7601 57.148 39.5988 56.7585 39.5988 56.3524V55.6991C39.5988 55.5637 39.545 55.4339 39.4493 55.3382C39.3535 55.2424 39.2237 55.1887 39.0883 55.1887H37.8838C37.4776 55.1887 37.0882 55.0273 36.801 54.7402C36.5138 54.453 36.3525 54.0635 36.3525 53.6574C36.3525 53.2513 36.5138 52.8618 36.801 52.5747C37.0882 52.2875 37.4776 52.1262 37.8838 52.1262H42.2733C42.5992 52.1374 42.9184 52.0318 43.1733 51.8286C43.4282 51.6253 43.6022 51.3376 43.6637 51.0174C43.7253 50.6972 43.6705 50.3655 43.5091 50.0822C43.3478 49.7988 43.0905 49.5824 42.7838 49.472L38.3329 47.6958C37.4359 47.3597 36.6726 46.7408 36.1586 45.9325C35.6445 45.1241 35.4076 44.1704 35.4837 43.2155C35.5599 42.2606 35.9448 41.3565 36.5804 40.6398C37.216 39.9231 38.0677 39.4329 39.0067 39.2432C39.1257 39.22 39.2331 39.1566 39.3112 39.0637C39.3892 38.9709 39.433 38.8541 39.4354 38.7328V37.9774C39.4354 37.5713 39.5967 37.1818 39.8839 36.8947C40.1711 36.6075 40.5606 36.4462 40.9667 36.4462C41.3728 36.4462 41.7623 36.6075 42.0494 36.8947C42.3366 37.1818 42.4979 37.5713 42.4979 37.9774V38.6307C42.4979 38.7661 42.5517 38.8959 42.6474 38.9917C42.7431 39.0874 42.873 39.1412 43.0083 39.1412H44.2129C44.619 39.1412 45.0085 39.3025 45.2957 39.5897C45.5828 39.8768 45.7442 40.2663 45.7442 40.6724C45.7442 41.0785 45.5828 41.468 45.2957 41.7552C45.0085 42.0423 44.619 42.2037 44.2129 42.2037H39.905C39.5791 42.1924 39.26 42.298 39.005 42.5013C38.7501 42.7046 38.5762 42.9922 38.5146 43.3124C38.453 43.6326 38.5079 43.9643 38.6692 44.2477C38.8305 44.531 39.0878 44.7474 39.3946 44.8578L43.8454 46.6341C44.7422 46.9769 45.5026 47.603 46.0112 48.4173C46.5197 49.2316 46.7487 50.1897 46.6632 51.1459C46.5777 52.1022 46.1826 53.0044 45.5376 53.7157C44.8927 54.4269 44.0334 54.9082 43.09 55.0866Z" fill="#F1C30C"/>
</svg>
