<svg width="83" height="83" viewBox="0 0 83 83" fill="none" xmlns="http://www.w3.org/2000/svg">
<circle cx="41.5" cy="41.5" r="41.5" fill="#12372A"/>
<path fill-rule="evenodd" clip-rule="evenodd" d="M29.25 31.5C29.25 28.1848 30.567 25.0054 32.9112 22.6612C35.2554 20.317 38.4348 19 41.75 19C45.0652 19 48.2446 20.317 50.5888 22.6612C52.933 25.0054 54.25 28.1848 54.25 31.5H56.3333C57.4384 31.5 58.4982 31.939 59.2796 32.7204C60.061 33.5018 60.5 34.5616 60.5 35.6667V56.5C60.5 57.6051 60.061 58.6649 59.2796 59.4463C58.4982 60.2277 57.4384 60.6667 56.3333 60.6667H27.1667C26.0616 60.6667 25.0018 60.2277 24.2204 59.4463C23.439 58.6649 23 57.6051 23 56.5V35.6667C23 34.5616 23.439 33.5018 24.2204 32.7204C25.0018 31.939 26.0616 31.5 27.1667 31.5H29.25ZM41.75 23.1667C43.9601 23.1667 46.0798 24.0446 47.6426 25.6074C49.2054 27.1702 50.0833 29.2899 50.0833 31.5H33.4167C33.4167 29.2899 34.2946 27.1702 35.8574 25.6074C37.4202 24.0446 39.5399 23.1667 41.75 23.1667ZM45.9167 44C45.9166 44.7314 45.7241 45.4499 45.3584 46.0833C44.9927 46.7167 44.4667 47.2426 43.8333 47.6083V50.25C43.8333 50.8025 43.6138 51.3324 43.2231 51.7231C42.8324 52.1138 42.3025 52.3333 41.75 52.3333C41.1975 52.3333 40.6676 52.1138 40.2769 51.7231C39.8862 51.3324 39.6667 50.8025 39.6667 50.25V47.6083C38.8724 47.1497 38.2516 46.4418 37.9006 45.5944C37.5497 44.747 37.4881 43.8075 37.7255 42.9216C37.9629 42.0356 38.486 41.2528 39.2136 40.6944C39.9413 40.136 40.8328 39.8334 41.75 39.8333C42.8551 39.8333 43.9149 40.2723 44.6963 41.0537C45.4777 41.8351 45.9167 42.8949 45.9167 44Z" fill="#F1C30C"/>
</svg>
